<svg xmlns="http://www.w3.org/2000/svg" viewBox="0 0 44.76 37.5"><defs><style>.cls-1{fill:#ed3621;stroke:#ed3621;stroke-miterlimit:10;}</style></defs><g id="Layer_2" data-name="Layer 2"><g id="Layer_12_copy" data-name="Layer 12 copy"><g id="buttons_copy" data-name="buttons copy"><path class="cls-1" d="M26,.5A18.25,18.25,0,0,0,7.76,18.75a.76.76,0,0,0,0,.15H1.23l8.35,8.17,2.13-2.16,1-.91,0-.08,4.94-5-7.17-.17h0c0-7.92,7.8-15.89,15.72-15.89S42.05,11,42.05,18.89s-7.8,15.56-15.72,15.56A17.62,17.62,0,0,1,15.14,30l-2,1.78s0,0,0,0A18.25,18.25,0,1,0,26,.5Z"/><path class="cls-1" d="M32.46,26.15,24.2,21.34a1,1,0,0,1-.5-.88l0-9.61h3l.15,7.87a1.21,1.21,0,0,0,.57,1l6.49,4Z"/></g></g></g></svg>