<svg xmlns="http://www.w3.org/2000/svg" viewBox="0 0 44.19 37.17"><defs><style>.cls-1,.cls-2{fill:#f7795b;}.cls-1{stroke:#f7795b;stroke-miterlimit:10;stroke-width:0.67px;}</style></defs><g id="Layer_2" data-name="Layer 2"><g id="Layer_12_copy" data-name="Layer 12 copy"><g id="buttons_copy" data-name="buttons copy"><path class="cls-1" d="M25.6.33A18.25,18.25,0,0,0,7.35,18.58c0,.05,0,.1,0,.15H.82L9.17,26.9l2.13-2.16,1-.91,0-.08,4.95-5L10,18.56h0c0-7.92,7.8-15.88,15.72-15.88s15.89,8.13,15.89,16.05-7.8,15.55-15.72,15.55a17.58,17.58,0,0,1-11.19-4.5l-2,1.78,0,0A18.25,18.25,0,1,0,25.6.33Z"/><path class="cls-2" d="M32.05,26l-8.26-4.81a1,1,0,0,1-.49-.88l0-9.6h3l.15,7.86a1.19,1.19,0,0,0,.57,1l6.49,4Z"/></g></g></g></svg>