<svg xmlns="http://www.w3.org/2000/svg" viewBox="0 0 43.67 37.5"><defs><style>.cls-1{fill:#ed3621;}.cls-1,.cls-2{stroke:#ed3621;stroke-miterlimit:10;}.cls-2{fill:none;stroke-width:3px;}</style></defs><g id="Layer_2" data-name="Layer 2"><g id="Layer_12_copy" data-name="Layer 12 copy"><g id="buttons_copy" data-name="buttons copy"><path class="cls-1" d="M25.37.5A18,18,0,0,0,7.58,18.75v.15H1.2l8.15,8.17,2.07-2.16,1-.91,0-.08,4.82-5-7-.17h0c0-7.92,7.6-15.89,15.33-15.89S41,11,41,18.89,33.41,34.45,25.69,34.45A16.93,16.93,0,0,1,14.78,30l-1.92,1.78s0,0,0,0A17.56,17.56,0,0,0,25.37,37a18,18,0,0,0,17.8-18.25A18,18,0,0,0,25.37.5Z"/><path class="cls-2" d="M20.78,15.22s.91-3.41,4.21-3.3,2.51,0,4.44,1.82-7.24,13.54-7.24,13.54l8.72.35"/></g></g></g></svg>